<svg width="64" height="65" viewBox="0 0 64 65" fill="none" xmlns="http://www.w3.org/2000/svg">
<circle cx="32" cy="32" r="32" transform="translate(0 0.333328)" fill="#FFFFF2"/>
<path d="M17.5766 51.728C13.1739 51.728 10.0713 49.8387 8.2686 46.06C6.5006 42.2467 5.6166 37.324 5.6166 31.292C5.6166 24.8787 6.56993 19.9387 8.4766 16.472C10.3833 13.0053 13.4513 11.272 17.6806 11.272C25.7579 11.272 29.7966 17.876 29.7966 31.084C29.7966 37.012 28.8779 41.9347 27.0406 45.852C25.2379 49.7693 22.0833 51.728 17.5766 51.728ZM17.6806 45.592C19.5179 45.592 20.7313 44.396 21.3206 42.004C21.9099 39.5773 22.2046 35.92 22.2046 31.032C22.2046 27.1147 21.9099 23.8733 21.3206 21.308C20.7659 18.708 19.5526 17.408 17.6806 17.408C15.8086 17.408 14.5953 18.6907 14.0406 21.256C13.4859 23.8213 13.2086 27.0627 13.2086 30.98C13.2086 35.9027 13.4859 39.5773 14.0406 42.004C14.6299 44.396 15.8433 45.592 17.6806 45.592Z" transform="translate(14 1)" fill="#407899"/>
</svg>
